<?xml version="1.0" standalone="no"?><!DOCTYPE svg PUBLIC "-//W3C//DTD SVG 1.1//EN" "http://www.w3.org/Graphics/SVG/1.1/DTD/svg11.dtd"><svg t="1556092996408" class="icon" style="" viewBox="0 0 1024 1024" version="1.1" xmlns="http://www.w3.org/2000/svg" p-id="4101" xmlns:xlink="http://www.w3.org/1999/xlink" width="200" height="200"><defs><style type="text/css"></style></defs><path d="M256.756735 800.570301l-22.404266-245.563812L76.893274 420.041612l870.213451-196.611913-426.115957 557.220924-124.891452-93.675496L256.756735 800.570301zM127.250172 432.53618l129.432885 110.940718 19.288299 211.386408 119.524211-97.439216 121.014144 90.753957 373.087207-487.887836L127.250172 432.53618z" p-id="4102" fill="#ffffff"></path><path d="M270.793426 788.057313l-38.134529-245.73982 680.855756-311.048245 11.136641 20.380166L343.537194 625.470331 270.793426 788.057313zM258.377652 556.165896l23.341614 150.450571 43.38716-96.983845 2.916423-1.870604L775.434831 319.953056 258.377652 556.165896z" p-id="4103" fill="#ffffff"></path><path d="M342.053029 608.858551l61.47692 54.649807-15.474174 17.407282-61.47692-54.649807 15.474174-17.407282Z" p-id="4104" fill="#ffffff"></path></svg>